<svg xmlns="http://www.w3.org/2000/svg" width="34" height="16" viewBox="0 0 34 16">
    <g>
        <g transform="translate(-982 -1151) translate(982 1151)">
            <rect width="34" height="16" fill="#ffab04" rx="8"/>
            <path fill="#fff" d="M2.515 12h1.4V9.03c0-.85-.11-1.78-.18-2.58h.05l.75 1.59L6.675 12h1.5V4.6h-1.4v2.95c0 .84.11 1.82.19 2.59h-.05l-.74-1.6-2.15-3.94h-1.51zm7.49 0h4.65v-1.24h-3.17V8.78h2.6V7.54h-2.6V5.83h3.06V4.6h-4.54zm6.85 0h1.81l.81-3.66c.12-.58.22-1.15.32-1.71h.04c.09.56.2 1.13.32 1.71l.83 3.66h1.84l1.37-7.4h-1.41L22.2 8.21c-.11.77-.22 1.56-.33 2.36h-.05c-.16-.8-.31-1.6-.47-2.36L20.5 4.6h-1.26l-.86 3.61c-.16.77-.32 1.57-.47 2.36h-.04c-.11-.79-.23-1.58-.34-2.36l-.59-3.61h-1.51z" transform="translate(4)"/>
        </g>
    </g>
</svg>
