<svg width="32" height="32" viewBox="0 0 32 32" fill="none" xmlns="http://www.w3.org/2000/svg">
<rect x="3.5" y="3.5" width="25" height="25" rx="2.5" fill="white" stroke="#444444"/>
<rect x="5" y="5" width="22" height="22" rx="2" fill="#4286F4"/>
<path d="M15.1924 12.8473L15.5209 13.1287L15.8466 12.8442C16.3463 12.4079 16.9929 12.1773 17.6559 12.1992C18.319 12.221 18.949 12.4936 19.4189 12.9619C19.8887 13.4302 20.1635 14.0593 20.1876 14.7222C20.2115 15.3796 19.9872 16.0217 19.5596 16.5211L15.8729 20.2184C15.6778 20.4141 15.3609 20.4144 15.1654 20.219L11.4738 16.5293C11.0533 16.0285 10.8346 15.3886 10.8611 14.7348C10.8878 14.0746 11.1625 13.4488 11.6303 12.9822C12.0982 12.5156 12.7247 12.2425 13.385 12.2175C14.0453 12.1925 14.6907 12.4174 15.1924 12.8473Z" fill="white" stroke="#444444"/>
<path d="M7.36002 8.28C7.89022 8.28 8.32002 7.85019 8.32002 7.32C8.32002 6.78981 7.89022 6.36 7.36002 6.36C6.82983 6.36 6.40002 6.78981 6.40002 7.32C6.40002 7.85019 6.82983 8.28 7.36002 8.28Z" fill="white" stroke="#444444"/>
<path d="M7.36002 25.6C7.89022 25.6 8.32002 25.1702 8.32002 24.64C8.32002 24.1098 7.89022 23.68 7.36002 23.68C6.82983 23.68 6.40002 24.1098 6.40002 24.64C6.40002 25.1702 6.82983 25.6 7.36002 25.6Z" fill="white" stroke="#444444"/>
<path d="M24.68 8.28C25.2102 8.28 25.64 7.85019 25.64 7.32C25.64 6.78981 25.2102 6.36 24.68 6.36C24.1498 6.36 23.72 6.78981 23.72 7.32C23.72 7.85019 24.1498 8.28 24.68 8.28Z" fill="white" stroke="#444444"/>
<path d="M24.68 25.6C25.2102 25.6 25.64 25.1702 25.64 24.64C25.64 24.1098 25.2102 23.68 24.68 23.68C24.1498 23.68 23.72 24.1098 23.72 24.64C23.72 25.1702 24.1498 25.6 24.68 25.6Z" fill="white" stroke="#444444"/>
</svg>
