<svg width="32" height="32" viewBox="0 0 32 32" fill="none" xmlns="http://www.w3.org/2000/svg">
<path d="M14.7806 3.93802L3.78058 12.3996C3.28841 12.7781 3 13.3639 3 13.9848V24C3 25.1046 3.89543 26 5 26H27C28.1046 26 29 25.1046 29 24V13.9848C29 13.3639 28.7116 12.7781 28.2194 12.3996L17.2194 3.93802C16.5005 3.38501 15.4995 3.38501 14.7806 3.93802Z" fill="white" stroke="#444444"/>
<rect x="6.5" y="7.5" width="19" height="15" rx="1.5" fill="#E2E2E2" stroke="#444444"/>
<path d="M2.5 26V13.5864C2.5 12.2767 4.0609 11.596 5.02068 12.4872L14.2989 21.1027C15.2581 21.9934 16.7419 21.9934 17.7011 21.1027L26.9793 12.4872C27.9391 11.596 29.5 12.2767 29.5 13.5864V26C29.5 26.8284 28.8284 27.5 28 27.5H4C3.17157 27.5 2.5 26.8284 2.5 26Z" fill="white" stroke="#444444"/>
<path d="M2.8645 26.0387L15.1689 18.1287C15.6707 17.8061 16.3158 17.8115 16.8121 18.1423L28.6425 26.0293C28.8659 26.1782 29 26.4288 29 26.6972C29 27.1406 28.6406 27.5 28.1972 27.5H3.2937C2.85535 27.5 2.5 27.1446 2.5 26.7063C2.5 26.4362 2.63733 26.1847 2.8645 26.0387Z" fill="white" stroke="#444444"/>
</svg>
