<svg width="32" height="32" viewBox="0 0 32 32" fill="none" xmlns="http://www.w3.org/2000/svg">
<path d="M30.5 16C30.5 24.0081 24.0081 30.5 16 30.5C7.99187 30.5 1.5 24.0081 1.5 16C1.5 7.99187 7.99187 1.5 16 1.5C24.0081 1.5 30.5 7.99187 30.5 16Z" fill="white" stroke="#444444"/>
<path d="M16.0019 27.5001C9.66042 27.5001 4.50049 22.3402 4.50049 15.9987C4.50049 9.82468 9.65122 4.74865 15.7997 4.50642L27.4942 16.1996C27.2519 22.3481 22.1759 27.5001 16.0019 27.5001Z" fill="white" stroke="#444444"/>
<path d="M15.9997 21.0006L11.4013 16.4046C10.8698 15.781 10.5931 14.9799 10.6262 14.1612C10.6593 13.3425 11 12.5664 11.5801 11.9878C12.1602 11.4092 12.9372 11.0706 13.756 11.0396C14.5747 11.0086 15.3751 11.2875 15.9973 11.8206C16.6171 11.2793 17.4192 10.9933 18.2417 11.0204C19.0642 11.0475 19.8457 11.3857 20.4286 11.9666C21.0115 12.5475 21.3523 13.3279 21.3822 14.1502C21.4121 14.9726 21.1288 15.7757 20.5897 16.3974L15.9997 21.0006Z" fill="#4286F4" stroke="#444444"/>
<path d="M16.4032 5.11038L26.9637 15.6709C24.2244 15.9706 21.5333 14.8264 19.541 12.8341C17.557 10.8502 16.3029 8.05934 16.4032 5.11038Z" fill="white" stroke="#444444"/>
</svg>
