<svg width="32" height="32" viewBox="0 0 32 32" fill="none" xmlns="http://www.w3.org/2000/svg">
<path d="M30.5 16C30.5 24.0081 24.0081 30.5 16 30.5C7.99187 30.5 1.5 24.0081 1.5 16C1.5 7.99187 7.99187 1.5 16 1.5C24.0081 1.5 30.5 7.99187 30.5 16Z" fill="white" stroke="#444444"/>
<path d="M16.0014 27.5001C9.65993 27.5001 4.5 22.3402 4.5 15.9987C4.5 9.82468 9.65073 4.74865 15.7992 4.50642L27.4937 16.1996C27.2515 22.3481 22.1754 27.5001 16.0014 27.5001Z" fill="white" stroke="#444444"/>
<path d="M15.9992 21.0006L11.4008 16.4046C10.8693 15.781 10.5926 14.9799 10.6257 14.1612C10.6589 13.3425 10.9995 12.5664 11.5796 11.9878C12.1597 11.4092 12.9367 11.0706 13.7555 11.0396C14.5742 11.0086 15.3746 11.2875 15.9968 11.8206C16.6166 11.2793 17.4188 10.9933 18.2412 11.0204C19.0637 11.0475 19.8452 11.3857 20.4281 11.9666C21.011 12.5475 21.3518 13.3279 21.3817 14.1502C21.4116 14.9726 21.1284 15.7757 20.5892 16.3974L15.9992 21.0006Z" fill="#E2E4E7" stroke="#444444"/>
<path d="M16.4032 5.11038L26.9637 15.6709C24.2244 15.9706 21.5333 14.8264 19.541 12.8341C17.557 10.8502 16.3029 8.05934 16.4032 5.11038Z" fill="white" stroke="#444444"/>
</svg>
