<svg width="32" height="32" viewBox="0 0 32 32" fill="none" xmlns="http://www.w3.org/2000/svg">
<path d="M15.6731 1.05943C15.8683 0.864496 16.1845 0.864497 16.3797 1.05943L16.733 0.70563L16.3797 1.05943L19.15 3.82591C19.485 4.16042 19.9582 4.31717 20.4266 4.24878L24.2426 3.69162C24.5113 3.65238 24.7623 3.83485 24.8078 4.10261L25.4842 8.08303C25.561 8.53504 25.8403 8.9271 26.2424 9.14734L29.7006 11.0413C29.9328 11.1685 30.0256 11.4546 29.9123 11.6939L28.1772 15.358C27.9847 15.7644 27.9847 16.2356 28.1772 16.642L29.9123 20.3061C30.0256 20.5454 29.9328 20.8315 29.7006 20.9587L26.2424 22.8527C25.8403 23.0729 25.561 23.465 25.4842 23.917L24.8078 27.8974C24.7623 28.1651 24.5113 28.3476 24.2426 28.3084L20.4266 27.7512C19.9582 27.6828 19.485 27.8396 19.15 28.1741L16.3797 30.9406C16.1845 31.1355 15.8683 31.1355 15.6731 30.9406L12.9027 28.1741C12.5677 27.8396 12.0945 27.6828 11.6261 27.7512L7.81014 28.3084C7.54139 28.3476 7.29046 28.1651 7.24496 27.8974L6.56856 23.917C6.49175 23.465 6.21243 23.0729 5.81031 22.8527L2.35213 20.9587C2.11994 20.8315 2.02712 20.5454 2.14042 20.3061L3.87558 16.642C4.06802 16.2356 4.06802 15.7644 3.87558 15.358L2.14042 11.6939C2.02712 11.4546 2.11994 11.1685 2.35213 11.0413L2.11195 10.6028L2.35213 11.0413L5.8103 9.14734C6.21243 8.9271 6.49175 8.53504 6.56856 8.08303L7.24496 4.10261C7.29047 3.83485 7.54139 3.65238 7.81013 3.69162L11.6261 4.24878C12.0945 4.31717 12.5677 4.16042 12.9027 3.82591L15.6731 1.05943Z" fill="white" stroke="#444444"/>
<path d="M14.2 11.1001C13.8126 10.5835 13.1382 10.3729 12.5257 10.577C11.9131 10.7812 11.5 11.3544 11.5 12.0001V20.0001C11.5 20.8285 12.1716 21.5001 13 21.5001C13.8284 21.5001 14.5 20.8285 14.5 20.0001V16.5001L17.8 20.9001C18.1874 21.4166 18.8618 21.6273 19.4743 21.4231L19.3162 20.9487L19.4743 21.4231C20.0869 21.2189 20.5 20.6457 20.5 20.0001V12.0001C20.5 11.1716 19.8284 10.5001 19 10.5001C18.1716 10.5001 17.5 11.1716 17.5 12.0001V15.5001L14.2 11.1001Z" fill="#4286F4" stroke="#444444" stroke-linecap="round" stroke-linejoin="round"/>
</svg>
