<svg width="32" height="32" viewBox="0 0 32 32" fill="none" xmlns="http://www.w3.org/2000/svg">
<rect x="12.5" y="3.5" width="7" height="5" fill="white" stroke="#444444"/>
<path d="M8.5 4.5L13 3C13 3.83333 13.6 5.5 16 5.5C18.4 5.5 19 3.83333 19 3L24 4.5L29.5 11.5L25.5 16L23.5 14.5V26.5C23.5 28.1 22.5 28.5 22 28.5H10C8.8 28.5 8.5 27.1667 8.5 26.5V14.5L6.5 16L2 11.5L8.5 4.5Z" fill="white"/>
<path d="M8.47211 15L7.26727 15.9393C6.85976 16.2569 6.27731 16.2118 5.92355 15.8352L2.62932 12.3279C2.27352 11.9491 2.2668 11.3615 2.61172 10.9728C3.79544 9.63866 5.61194 7.54796 6.54797 6.31579C7.66747 4.84211 8.29719 4.47368 8.47211 4.47368L10.7461 3.73684L13.0201 3C13.0784 3.73684 13.4699 5.54942 16 5.54942" stroke="#444444" stroke-linejoin="round"/>
<path d="M8.5 9.5V26.5C8.5 27.6046 9.39543 28.5 10.5 28.5H21.5C22.6046 28.5 23.5 27.6046 23.5 26.5V9.5" stroke="#444444"/>
<path d="M23.501 15L24.78 15.9598C25.1893 16.2669 25.7644 16.2155 26.1127 15.8407L29.3763 12.3291C29.7292 11.9493 29.7337 11.3633 29.3888 10.9762C28.2002 9.64227 26.3739 7.54902 25.4331 6.31579C24.309 4.84211 23.6766 4.47368 23.501 4.47368L21.2176 3.73684L18.9341 3C18.8756 3.73684 18.3713 5.54942 16 5.54942" stroke="#444444" stroke-linejoin="round"/>
<path d="M15.9997 20.1671L12.1677 16.3371C11.7248 15.8174 11.4941 15.1499 11.5218 14.4676C11.5494 13.7854 11.8332 13.1387 12.3167 12.6565C12.8001 12.1743 13.4476 11.8922 14.1299 11.8663C14.8122 11.8405 15.4791 12.0729 15.9977 12.5171C16.5142 12.0661 17.1826 11.8278 17.868 11.8503C18.5534 11.8729 19.2047 12.1547 19.6904 12.6388C20.1762 13.1229 20.4601 13.7732 20.4851 14.4585C20.51 15.1438 20.274 15.813 19.8247 16.3311L15.9997 20.1671Z" fill="#4286F4" stroke="#444444"/>
</svg>
