<svg width="32" height="32" viewBox="0 0 32 32" fill="none" xmlns="http://www.w3.org/2000/svg">
<rect x="10.5" y="10.5" width="11" height="6" rx="1.5" fill="#4286F4" stroke="#444444"/>
<rect x="10.5" y="18.5" width="11" height="2" rx="1" fill="white" stroke="#444444"/>
<mask id="path-3-inside-1_7233_33802" fill="white">
<path fill-rule="evenodd" clip-rule="evenodd" d="M12.1448 0.776457C10.5444 0.347632 8.89944 1.29738 8.47061 2.89778L2.77659 24.1481C2.34777 25.7485 3.29752 27.3936 4.89791 27.8224L13.5067 30.1291L24.4492 23.8114L25.2645 25.2236L29.721 8.5918C30.1498 6.9914 29.2001 5.34639 27.5997 4.91756L12.1448 0.776457Z"/>
</mask>
<path fill-rule="evenodd" clip-rule="evenodd" d="M12.1448 0.776457C10.5444 0.347632 8.89944 1.29738 8.47061 2.89778L2.77659 24.1481C2.34777 25.7485 3.29752 27.3936 4.89791 27.8224L13.5067 30.1291L24.4492 23.8114L25.2645 25.2236L29.721 8.5918C30.1498 6.9914 29.2001 5.34639 27.5997 4.91756L12.1448 0.776457Z" fill="white"/>
<path d="M8.47061 2.89778L9.43654 3.1566L8.47061 2.89778ZM2.77659 24.1481L1.81067 23.8893L2.77659 24.1481ZM13.5067 30.1291L13.2479 31.095L13.648 31.2022L14.0067 30.9951L13.5067 30.1291ZM24.4492 23.8114L25.3152 23.3114L24.8152 22.4454L23.9492 22.9454L24.4492 23.8114ZM25.2645 25.2236L24.3985 25.7236L25.6056 27.8144L26.2304 25.4824L25.2645 25.2236ZM29.721 8.5918L28.7551 8.33298L29.721 8.5918ZM9.43654 3.1566C9.72242 2.08966 10.8191 1.4565 11.886 1.74238L12.4037 -0.189469C10.2698 -0.761236 8.07645 0.505094 7.50469 2.63896L9.43654 3.1566ZM3.74252 24.407L9.43654 3.1566L7.50469 2.63896L1.81067 23.8893L3.74252 24.407ZM5.15673 26.8565C4.0898 26.5706 3.45664 25.4739 3.74252 24.407L1.81067 23.8893C1.2389 26.0232 2.50523 28.2165 4.6391 28.7883L5.15673 26.8565ZM13.7655 29.1632L5.15673 26.8565L4.6391 28.7883L13.2479 31.095L13.7655 29.1632ZM14.0067 30.9951L24.9492 24.6775L23.9492 22.9454L13.0067 29.2631L14.0067 30.9951ZM23.5831 24.3115L24.3985 25.7236L26.1305 24.7236L25.3152 23.3114L23.5831 24.3115ZM28.7551 8.33298L24.2986 24.9648L26.2304 25.4824L30.6869 8.85062L28.7551 8.33298ZM27.3408 5.88349C28.4078 6.16937 29.0409 7.26605 28.7551 8.33298L30.6869 8.85062C31.2587 6.71675 29.9923 4.5234 27.8585 3.95164L27.3408 5.88349ZM11.886 1.74238L27.3408 5.88349L27.8585 3.95164L12.4037 -0.189469L11.886 1.74238Z" fill="#444444" mask="url(#path-3-inside-1_7233_33802)"/>
<mask id="path-5-inside-2_7233_33802" fill="white">
<path fill-rule="evenodd" clip-rule="evenodd" d="M8 3C6.34315 3 5 4.34315 5 6V28C5 29.6569 6.34315 31 8 31H19.8125L27 23.8125V6C27 4.34315 25.6569 3 24 3H8Z"/>
</mask>
<path fill-rule="evenodd" clip-rule="evenodd" d="M8 3C6.34315 3 5 4.34315 5 6V28C5 29.6569 6.34315 31 8 31H19.8125L27 23.8125V6C27 4.34315 25.6569 3 24 3H8Z" fill="white"/>
<path d="M19.8125 31V32H20.2267L20.5196 31.7071L19.8125 31ZM27 23.8125L27.7071 24.5196L28 24.2267V23.8125H27ZM6 6C6 4.89543 6.89543 4 8 4V2C5.79086 2 4 3.79086 4 6H6ZM6 28V6H4V28H6ZM8 30C6.89543 30 6 29.1046 6 28H4C4 30.2091 5.79086 32 8 32V30ZM19.8125 30H8V32H19.8125V30ZM20.5196 31.7071L27.7071 24.5196L26.2929 23.1054L19.1054 30.2929L20.5196 31.7071ZM26 6V23.8125H28V6H26ZM24 4C25.1046 4 26 4.89543 26 6H28C28 3.79086 26.2091 2 24 2V4ZM8 4H24V2H8V4Z" fill="#444444" mask="url(#path-5-inside-2_7233_33802)"/>
<path d="M26.5 23.5H22.5C20.8431 23.5 19.5 24.8431 19.5 26.5V30.5" stroke="#444444"/>
<rect x="10.5" y="8.5" width="11" height="11" rx="1.5" fill="#4286F4" stroke="#444444"/>
<rect x="0.25" y="-0.25" width="7.5" height="0.5" rx="0.25" transform="matrix(1 0 0 -1 10 21.5)" fill="#4286F4" stroke="#444444" stroke-width="0.5"/>
<rect x="0.25" y="-0.25" width="5.5" height="0.5" rx="0.25" transform="matrix(1 0 0 -1 10 23.5)" fill="#4286F4" stroke="#444444" stroke-width="0.5"/>
</svg>
