<svg width="32" height="32" viewBox="0 0 32 32" fill="none" xmlns="http://www.w3.org/2000/svg">
<path d="M9 4.5H23C23.8284 4.5 24.5 5.17157 24.5 6V25C24.5 26.933 22.933 28.5 21 28.5H7.5V6C7.5 5.17157 8.17157 4.5 9 4.5Z" fill="white" stroke="#444444"/>
<path d="M9 4.5H23C23.8284 4.5 24.5 5.17157 24.5 6V25C24.5 26.933 22.933 28.5 21 28.5H7.5V6C7.5 5.17157 8.17157 4.5 9 4.5Z" fill="white" stroke="#444444"/>
<path d="M11 9.5H21C21.8284 9.5 22.5 10.1716 22.5 11V21C22.5 21.8284 21.8284 22.5 21 22.5H11C10.1716 22.5 9.5 21.8284 9.5 21V11C9.5 10.1716 10.1716 9.5 11 9.5Z" fill="#E2E4E7" stroke="#444444"/>
<path d="M19.9001 3.36937L17.7788 1.24805L12.8291 6.19779L14.9504 8.31911L19.9001 3.36937Z" fill="white"/>
<path d="M19.193 3.36929L17.7788 1.95508L13.5362 6.19772L14.9504 7.61193L19.193 3.36929Z" stroke="#444444"/>
<path d="M20.5002 28.4997H6.99976C5.79262 28.4997 4.78258 27.6396 4.55029 26.5H17.9876C18.4626 27.5518 19.4092 28.2864 20.5002 28.4602V28.4997Z" fill="white"/>
<path d="M18.4643 27.9997C18.1553 27.7157 17.8892 27.3792 17.6793 27H5.26845C5.61473 27.5972 6.26108 27.9997 6.9997 27.9997H18.4643ZM21.0001 28.9997H20.9991H6.9997C5.34566 28.9997 4 27.654 4 26H18.3281C18.7273 27.1964 19.8007 27.9998 21.0001 27.9998V28.9987V28.9997Z" fill="#444444"/>
</svg>
