<svg width="32" height="32" viewBox="0 0 32 32" fill="none" xmlns="http://www.w3.org/2000/svg">
<path d="M8.15511 7.67665C8.31752 6.43148 9.37839 5.5 10.6341 5.5H23.3659C24.6216 5.5 25.6825 6.43148 25.8449 7.67665L28.0623 24.6767C28.2575 26.1731 27.0924 27.5 25.5833 27.5H8.41672C6.90761 27.5 5.74253 26.1731 5.93772 24.6767L8.15511 7.67665Z" fill="white" stroke="#444444"/>
<path d="M13.5 8V5.5C13.5 3.567 15.067 2 17 2V2C18.933 2 20.5 3.567 20.5 5.5V8" stroke="#444444"/>
<path d="M13 8.5H14" stroke="#444444" stroke-linecap="round"/>
<path d="M20 8.5H21" stroke="#444444" stroke-linecap="round"/>
<path d="M5.33928 28.2802L3.55956 12.5H17.4404L15.6607 28.2802C15.5181 29.5445 14.4488 30.5 13.1765 30.5H7.82353C6.55123 30.5 5.48187 29.5445 5.33928 28.2802Z" fill="white" stroke="#444444"/>
<path d="M3.29788 10.8331C3.36859 10.6334 3.55741 10.5 3.7692 10.5H17.2308C17.4426 10.5 17.6314 10.6334 17.7021 10.8331L18.0563 11.8331C18.1715 12.1585 17.9302 12.5 17.585 12.5H3.41503C3.06982 12.5 2.82847 12.1585 2.94372 11.8331L3.29788 10.8331Z" fill="white" stroke="#444444"/>
<path d="M4.11472 17.5H16.9014C17.1961 17.5 17.4268 17.7535 17.3992 18.0469L16.8342 24.0469C16.81 24.3037 16.5944 24.5 16.3364 24.5H4.76762C4.51241 24.5 4.29816 24.3078 4.27056 24.0541L3.61765 18.0541C3.58547 17.7583 3.81717 17.5 4.11472 17.5Z" fill="#4286F4" stroke="#444444"/>
</svg>
