<svg width="32" height="32" viewBox="0 0 32 32" fill="none" xmlns="http://www.w3.org/2000/svg">
<path d="M10.4355 28.0659C9.99597 27.8147 8.89349 27.0741 7.85731 25.8687C6.82345 24.6661 5.87338 23.0225 5.6854 20.9547C5.4445 18.3048 6.00192 16.588 6.7902 15.3369C7.39938 14.37 8.13853 13.6791 8.84843 13.0155C9.08447 12.7949 9.31729 12.5773 9.54101 12.3535C9.70979 12.1848 9.88791 12.0091 10.0728 11.8266C11.0118 10.9003 12.1257 9.80142 13.0814 8.56098C14.2281 7.07282 15.1896 5.32999 15.3686 3.34923C15.393 3.07995 15.5619 2.82222 15.7874 2.6787C16.0052 2.54001 16.2072 2.54216 16.364 2.65083C17.5334 3.46121 18.7653 4.43381 19.8294 5.4237C20.9001 6.41977 21.7733 7.40806 22.2533 8.24807C23.1983 9.9018 23.361 11.3155 23.2103 12.5352C23.0743 13.6363 22.6849 14.5891 22.3236 15.473C22.2768 15.5875 22.2305 15.7009 22.1853 15.8132C21.8652 16.6083 21.5117 17.3561 21.1786 18.0142C20.9123 18.5403 20.9673 19.1277 21.2927 19.5339C21.6335 19.9593 22.2148 20.1127 22.7894 19.8494C23.6806 19.4412 24.6979 18.8207 25.6621 17.9222C25.843 17.7537 26.0787 17.71 26.2566 17.7558C26.4164 17.797 26.515 17.8988 26.5275 18.0766C26.7139 20.7144 26.0955 24.4747 22.8708 27.113C18.6677 30.5519 13.8006 29.9888 10.4355 28.0659Z" fill="white" stroke="#444444"/>
<path d="M14.6318 14.9725H14.6949C14.7734 15.0147 14.8921 15.0984 15.0491 15.2329C15.3634 15.5021 15.7581 15.9113 16.1708 16.3881C17.0012 17.3474 17.8373 18.5015 18.1846 19.1961C18.2671 19.361 18.3587 19.5338 18.4548 19.7148C18.9781 20.7009 19.6318 21.9327 19.6318 23.4725C19.6318 25.6816 17.841 27.4725 15.6318 27.4725C13.4227 27.4725 11.6318 25.6816 11.6318 23.4725C11.6318 22.5233 12.0018 21.9843 12.5062 21.4183C12.5845 21.3305 12.6681 21.2405 12.7549 21.1469C13.2247 20.641 13.7881 20.0342 14.1035 19.1385C14.5076 17.9907 14.4646 16.8816 14.4339 16.0879C14.4304 15.997 14.427 15.9102 14.4245 15.828C14.4112 15.3905 14.4261 15.1552 14.4758 15.0288C14.4849 15.0057 14.492 14.9956 14.4942 14.9928C14.4944 14.9925 14.4946 14.9923 14.4948 14.9921C14.4955 14.9916 14.4972 14.9908 14.4999 14.9897C14.5039 14.988 14.5107 14.9856 14.5211 14.983C14.5424 14.9778 14.5777 14.9725 14.6318 14.9725Z" fill="#FF3D00" stroke="#444444"/>
</svg>
