<svg width="32" height="32" viewBox="0 0 32 32" fill="none" xmlns="http://www.w3.org/2000/svg">
<path d="M3 4.52083C3 4.23319 2.77614 4 2.5 4C2.22386 4 2 4.23319 2 4.52083V28.4792C2 28.7668 2.22386 29 2.5 29C2.77614 29 3 28.7668 3 28.4792V4.52083Z" fill="#444444"/>
<path d="M30 3.54167C30 3.24251 29.7761 3 29.5 3C29.2239 3 29 3.24251 29 3.54167V28.4583C29 28.7575 29.2239 29 29.5 29C29.7761 29 30 28.7575 30 28.4583V3.54167Z" fill="#444444"/>
<path d="M3.7 28H1.3C1.13431 28 1 28.2239 1 28.5C1 28.7761 1.13431 29 1.3 29H3.7C3.86569 29 4 28.7761 4 28.5C4 28.2239 3.86569 28 3.7 28Z" fill="#444444"/>
<path d="M30.7 28H28.3C28.1343 28 28 28.2239 28 28.5C28 28.7761 28.1343 29 28.3 29H30.7C30.8657 29 31 28.7761 31 28.5C31 28.2239 30.8657 28 30.7 28Z" fill="#444444"/>
<path d="M3.5 3.5C3.5 4.05228 3.05228 4.5 2.5 4.5C1.94772 4.5 1.5 4.05228 1.5 3.5C1.5 2.94772 1.94772 2.5 2.5 2.5C3.05228 2.5 3.5 2.94772 3.5 3.5Z" fill="white" stroke="#444444"/>
<path d="M29.5 5C30.3284 5 31 4.32843 31 3.5C31 2.67157 30.3284 2 29.5 2C28.6716 2 28 2.67157 28 3.5C28 4.32843 28.6716 5 29.5 5Z" fill="white"/>
<path d="M29.5 4.5C30.0523 4.5 30.5 4.05228 30.5 3.5C30.5 2.94772 30.0523 2.5 29.5 2.5C28.9477 2.5 28.5 2.94772 28.5 3.5C28.5 4.05228 28.9477 4.5 29.5 4.5Z" stroke="#444444"/>
<mask id="path-8-inside-1_7233_33758" fill="white">
<path d="M3 8H29V21H3V8Z"/>
</mask>
<path d="M3 8H29V21H3V8Z" fill="white"/>
<path d="M3 9H29V7H3V9ZM29 20H3V22H29V20Z" fill="#444444" mask="url(#path-8-inside-1_7233_33758)"/>
<path d="M12 9H29V20H10L12 9Z" fill="#4286F4"/>
</svg>
