<svg xmlns="http://www.w3.org/2000/svg" width="44" height="25" viewBox="0 0 44 25">
  <g id="best" transform="translate(-580 -269)">
    <g id="합치기_12" data-name="합치기 12" transform="translate(-696 6765)" fill="#fff">
      <path d="M 1309.5 -6472.20703125 L 1309.5 -6476.00048828125 L 1309.5 -6476.50048828125 L 1309 -6476.50048828125 L 1286 -6476.50048828125 C 1280.761596679688 -6476.50048828125 1276.499877929688 -6480.76220703125 1276.499877929688 -6486.00048828125 C 1276.499877929688 -6491.23876953125 1280.761596679688 -6495.50048828125 1286 -6495.50048828125 L 1309.999389648438 -6495.50048828125 C 1315.23779296875 -6495.50048828125 1319.49951171875 -6491.23876953125 1319.49951171875 -6486.00048828125 C 1319.49951171875 -6484.47998046875 1319.1513671875 -6483.02734375 1318.46484375 -6481.68359375 C 1317.809692382813 -6480.4013671875 1316.852905273438 -6479.265625 1315.697998046875 -6478.3984375 L 1315.669677734375 -6478.376953125 L 1315.644653320313 -6478.35205078125 L 1309.5 -6472.20703125 Z" stroke="none"/>
      <path d="M 1310 -6473.4140625 L 1315.291015625 -6478.70556640625 L 1315.341186523438 -6478.755859375 L 1315.397827148438 -6478.79833984375 C 1316.4921875 -6479.61962890625 1317.398803710938 -6480.6962890625 1318.01953125 -6481.9111328125 C 1318.669799804688 -6483.18408203125 1318.99951171875 -6484.5595703125 1318.99951171875 -6486.00048828125 C 1318.99951171875 -6490.962890625 1314.962036132813 -6495.00048828125 1309.999389648438 -6495.00048828125 L 1286 -6495.00048828125 C 1281.037353515625 -6495.00048828125 1276.999877929688 -6490.962890625 1276.999877929688 -6486.00048828125 C 1276.999877929688 -6481.0380859375 1281.037353515625 -6477.00048828125 1286 -6477.00048828125 L 1309 -6477.00048828125 L 1310 -6477.00048828125 L 1310 -6476.00048828125 L 1310 -6473.4140625 M 1309 -6471 L 1309 -6476.00048828125 L 1286 -6476.00048828125 C 1280.476684570313 -6476.00048828125 1275.999877929688 -6480.47705078125 1275.999877929688 -6486.00048828125 C 1275.999877929688 -6491.52197265625 1280.476684570313 -6496.00048828125 1286 -6496.00048828125 L 1309.999389648438 -6496.00048828125 C 1315.522827148438 -6496.00048828125 1319.99951171875 -6491.52197265625 1319.99951171875 -6486.00048828125 C 1319.99951171875 -6482.7275390625 1318.428100585938 -6479.82275390625 1315.998168945313 -6477.99853515625 L 1309 -6471 Z" stroke="none" fill="#4286f4"/>
    </g>
    <path id="패스_6758" data-name="패스 6758" d="M1,.247H4.159c1.95,0,3.433-.782,3.433-2.47A1.934,1.934,0,0,0,5.93-4.2v-.057A1.9,1.9,0,0,0,7.138-6.074c0-1.563-1.388-2.062-3.206-2.062H1Zm1.77-4.973v-2.13H3.824c1.065,0,1.591.295,1.591,1.031,0,.668-.49,1.1-1.615,1.1Zm0,3.682V-3.48H4c1.22,0,1.866.34,1.866,1.155,0,.872-.658,1.28-1.866,1.28ZM9.147.247H14.71v-1.4H10.918V-3.4h3.11V-4.8h-3.11V-6.742h3.661V-8.135H9.147Zm10,.159C21.194.406,22.4-.761,22.4-2.132A2.336,2.336,0,0,0,20.62-4.408l-1.16-.464c-.754-.283-1.388-.5-1.388-1.1,0-.555.5-.884,1.28-.884a2.914,2.914,0,0,1,1.878.691l.9-1.054a4.045,4.045,0,0,0-2.775-1.076c-1.794,0-3.062,1.054-3.062,2.424a2.454,2.454,0,0,0,1.794,2.254l1.184.476c.79.317,1.328.51,1.328,1.133,0,.589-.49.963-1.412.963a3.58,3.58,0,0,1-2.249-.929L15.918-.817A4.862,4.862,0,0,0,19.148.406Zm6.3-.159h1.77V-6.742h2.512V-8.135H22.964v1.393h2.488Z" transform="translate(587 283)" fill="#4286f4"/>
  </g>
</svg>
