<svg xmlns="http://www.w3.org/2000/svg" width="44" height="25" viewBox="0 0 44 25">
  <g id="Hot_big" transform="translate(-580 -268.999)">
    <g id="합치기_12" data-name="합치기 12" transform="translate(-696 6765)" fill="#fff">
      <path d="M 1309.5 -6472.20703125 L 1309.5 -6476.00048828125 L 1309.5 -6476.50048828125 L 1309 -6476.50048828125 L 1286 -6476.50048828125 C 1280.761596679688 -6476.50048828125 1276.499877929688 -6480.76220703125 1276.499877929688 -6486.00048828125 C 1276.499877929688 -6491.23876953125 1280.761596679688 -6495.50048828125 1286 -6495.50048828125 L 1309.999389648438 -6495.50048828125 C 1315.23779296875 -6495.50048828125 1319.49951171875 -6491.23876953125 1319.49951171875 -6486.00048828125 C 1319.49951171875 -6484.47998046875 1319.1513671875 -6483.02734375 1318.46484375 -6481.68359375 C 1317.809692382813 -6480.4013671875 1316.852905273438 -6479.265625 1315.697998046875 -6478.3984375 L 1315.669677734375 -6478.376953125 L 1315.644653320313 -6478.35205078125 L 1309.5 -6472.20703125 Z" stroke="none"/>
      <path d="M 1310 -6473.4140625 L 1315.291015625 -6478.70556640625 L 1315.341186523438 -6478.755859375 L 1315.397827148438 -6478.79833984375 C 1316.4921875 -6479.61962890625 1317.398803710938 -6480.6962890625 1318.01953125 -6481.9111328125 C 1318.669799804688 -6483.18408203125 1318.99951171875 -6484.5595703125 1318.99951171875 -6486.00048828125 C 1318.99951171875 -6490.962890625 1314.962036132813 -6495.00048828125 1309.999389648438 -6495.00048828125 L 1286 -6495.00048828125 C 1281.037353515625 -6495.00048828125 1276.999877929688 -6490.962890625 1276.999877929688 -6486.00048828125 C 1276.999877929688 -6481.0380859375 1281.037353515625 -6477.00048828125 1286 -6477.00048828125 L 1309 -6477.00048828125 L 1310 -6477.00048828125 L 1310 -6476.00048828125 L 1310 -6473.4140625 M 1309 -6471 L 1309 -6476.00048828125 L 1286 -6476.00048828125 C 1280.476684570313 -6476.00048828125 1275.999877929688 -6480.47705078125 1275.999877929688 -6486.00048828125 C 1275.999877929688 -6491.52197265625 1280.476684570313 -6496.00048828125 1286 -6496.00048828125 L 1309.999389648438 -6496.00048828125 C 1315.522827148438 -6496.00048828125 1319.99951171875 -6491.52197265625 1319.99951171875 -6486.00048828125 C 1319.99951171875 -6482.7275390625 1318.428100585938 -6479.82275390625 1315.998168945313 -6477.99853515625 L 1309 -6471 Z" stroke="none" fill="#ff3227"/>
    </g>
    <path id="패스_6748" data-name="패스 6748" d="M1.092,0H2.868V-3.84h3.36V0H7.992V-8.88H6.228v3.492H2.868V-8.88H1.092ZM13.7.168c2.352,0,3.972-1.764,3.972-4.644S16.056-9.048,13.7-9.048,9.732-7.368,9.732-4.476,11.352.168,13.7.168Zm0-1.536c-1.32,0-2.16-1.212-2.16-3.108s.84-3.048,2.16-3.048,2.16,1.14,2.16,3.048S15.024-1.368,13.7-1.368ZM20.808,0h1.776V-7.4H25.1V-8.88H18.312V-7.4h2.5Z" transform="translate(589 284)" fill="#ff3227"/>
  </g>
</svg>
